#!OML:ASF X:\für Bonn\!DataBase\2005_08_10_Bjorn_Final\c3d\bjorn.ASF
:FULLY-SPECIFIED
:DEGREES
63
root 2.45747 19.4402 3.88601 -203.544 -42.0365 -168.054
lowerback 26.1909 -0.346 -5.23901
upperback 17.4413 -5.19943 -5.56155
thorax 4.95493 -4.27366 -2.18548
lowerneck -15.9878 -10.4293 -6.6956
upperneck 10.0995 -17.3077 22.2126
head 8.53929 -7.32991 6.07613
rclavicle -2.06736e-014 8.26944e-014
rhumerus -48.505 -6.62268 -95.7016
rradius 31.3256
rwrist 19.7501
rhand -10.1673 12.2451
rfingers 7.12502
rthumb 15.8225 -17.1283
lclavicle -2.06736e-014 8.26944e-014
lhumerus 45.1374 -21.2404 80.3334
lradius 111.132
lwrist -6.81166
lhand -42.5593 -28.549
lfingers 7.12502
lthumb -15.4339 0.854807
rfemur -66.5165 -2.85806 14.9058
rtibia 119.634
rfoot 6.35237 16.3448
rtoes -22.6445
lfemur 6.22149 -11.7598 -11.7791
ltibia 16.5598
lfoot 5.02545 -24.9615
ltoes 14.2238
64
root 2.5092 19.4527 3.88869 -204.555 -42.8925 -167.028
lowerback 27.2263 -0.434788 -5.232
upperback 17.7597 -5.49593 -5.41214
thorax 4.87582 -4.4806 -1.92683
lowerneck -15.9296 -10.4892 -6.66831
upperneck 9.44354 -17.4196 22.7906
head 8.40038 -7.41608 6.23962
rclavicle 4.29375e-014 3.81667e-014
rhumerus -48.7181 -6.21738 -95.6022
rradius 32.0354
rwrist 18.8922
rhand -10.4609 12.2262
rfingers 7.12502
rthumb 15.5398 -17.1694
lclavicle 4.29375e-014 3.81667e-014
lhumerus 46.2778 -21.8758 80.9693
lradius 111.403
lwrist -6.82249
lhand -42.4035 -28.8751
lfingers 7.12502
lthumb -15.2838 0.540177
rfemur -68.4695 -3.84997 14.7875
rtibia 120.95
rfoot 6.49943 16.8458
rtoes -22.5739
lfemur 6.3698 -12.4654 -11.235
ltibia 16.1978
lfoot 5.43679 -25.2151
ltoes 14.0381
65
root 2.55946 19.4652 3.88862 -205.572 -43.7515 -165.966
lowerback 28.2198 -0.525641 -5.21812
upperback 18.064 -5.78254 -5.24489
thorax 4.81257 -4.68109 -1.65145
lowerneck -15.8083 -10.5328 -6.62088
upperneck 8.76975 -17.5037 23.3534
head 8.23824 -7.49893 6.402
rclavicle 8.74653e-014 9.85972e-014
rhumerus -48.948 -5.88336 -95.4503
rradius 32.7217
rwrist 18.0606
rhand -10.6256 12.1951
rfingers 7.12502
rthumb 15.3812 -17.2128
lclavicle 8.74653e-014 9.85972e-014
lhumerus 47.2656 -22.5087 81.5655
lradius 111.658
lwrist -6.76017
lhand -42.2648 -29.2157
lfingers 7.12502
lthumb -15.1503 0.209776
rfemur -70.4105 -4.95644 14.6862
rtibia 122.19
rfoot 6.59263 17.31
rtoes -22.4948
lfemur 6.42134 -13.2481 -10.7083
ltibia 15.9601
lfoot 5.82434 -25.4377
ltoes 14.1213
66
root 2.60868 19.473 3.88684 -206.625 -44.6005 -164.814
lowerback 29.171 -0.637668 -5.17593
upperback 18.3606 -6.07856 -5.04536
thorax 4.77208 -4.88449 -1.35207
lowerneck -15.6652 -10.5584 -6.57925
upperneck 8.08716 -17.5467 23.8861
head 8.06136 -7.56937 6.56348
rclavicle -3.33958e-014 1.59028e-014
rhumerus -49.1167 -5.69355 -95.182
rradius 33.239
rwrist 17.461
rhand -10.75 12.2805
rfingers 7.12502
rthumb 15.2613 -17.1365
lclavicle -3.33958e-014 1.59028e-014
lhumerus 48.128 -23.1094 82.1115
lradius 111.981
lwrist -6.60154
lhand -42.0927 -29.5437
lfingers 7.12502
lthumb -14.9845 -0.105832
rfemur -72.2528 -6.20039 14.6671
rtibia 123.311
rfoot 6.57303 17.7714
rtoes -22.4308
lfemur 6.09268 -14.0394 -10.14
ltibia 16.3596
lfoot 5.72469 -25.7614
ltoes 13.7176
67
root 2.65548 19.4774 3.88379 -207.692 -45.4313 -163.628
lowerback 30.1078 -0.761204 -5.07515
upperback 18.6461 -6.36934 -4.85302
thorax 4.72918 -5.0788 -1.0892
lowerneck -15.5261 -10.5772 -6.53562
upperneck 7.39849 -17.5878 24.454
head 7.88942 -7.64279 6.73662
rclavicle -3.81667e-014 6.99722e-014
rhumerus -49.253 -5.57583 -94.9204
rradius 33.6542
rwrist 16.8887
rhand -10.8239 12.3823
rfingers 7.12502
rthumb 15.1901 -17.0401
lclavicle -3.81667e-014 6.99722e-014
lhumerus 48.9586 -23.7264 82.5955
lradius 112.293
lwrist -6.30575
lhand -41.9203 -29.7487
lfingers 7.12502
lthumb -14.8184 -0.298527
rfemur -74.0181 -7.49955 14.6959
rtibia 124.317
rfoot 6.43873 18.1895
rtoes -22.7604
lfemur 5.70186 -14.8784 -9.58174
ltibia 16.8167
lfoot 5.6333 -26.0416
ltoes 13.4507
68
root 2.69736 19.4316 3.87171 -208.772 -46.2269 -162.409
lowerback 31.3596 -0.855048 -4.98854
upperback 18.9202 -6.64485 -4.61459
thorax 4.3741 -5.26511 -0.731123
lowerneck -15.4587 -10.6059 -6.43798
upperneck 6.74295 -17.6403 24.9485
head 7.73066 -7.71901 6.87152
rclavicle -1.27222e-014 6.36111e-015
rhumerus -49.3128 -5.59933 -94.5715
rradius 33.9
rwrist 16.5541
rhand -10.8423 12.5649
rfingers 7.12502
rthumb 15.1724 -16.8588
lclavicle -1.27222e-014 6.36111e-015
lhumerus 49.7575 -24.3345 83.0409
lradius 112.637
lwrist -5.84172
lhand -41.7601 -29.8178
lfingers 7.12502
lthumb -14.664 -0.356371
rfemur -76.2007 -9.03739 14.6936
rtibia 125.584
rfoot 6.46988 18.731
rtoes -22.8004
lfemur 5.24441 -15.7375 -9.01775
ltibia 17.3588
lfoot 5.39589 -26.2995
ltoes 12.9657
